<svg xmlns="http://www.w3.org/2000/svg" width="90" height="90"><defs><style>.cls-5{fill:#c5d3a0}</style></defs><g style="isolation:isolate"><g id="Layer_1" data-name="Layer 1"><path d="M12.89 5h64.3A7.91 7.91 0 0 1 85 12.89v64.26A7.86 7.86 0 0 1 77.15 85h-64.3A7.86 7.86 0 0 1 5 77.15V12.89A7.93 7.93 0 0 1 12.89 5Z" style="fill:#6c9d41"/><path transform="rotate(-180 45.065 75.685)" style="mix-blend-mode:multiply;opacity:.25" d="M5.13 74.53h79.86v2.31H5.13z"/><path d="M77.15 85h-64.3A7.86 7.86 0 0 1 5 77.15v-.31h80v.31A7.86 7.86 0 0 1 77.15 85Z" style="fill:#dfc06f"/><g><path class="cls-5" d="M15.41 11.33H45v29.59H15.41zM45 40.92h29.59v29.59H45z"/></g><g><path style="opacity:.25" d="m54.32 29.4-3.07 3.08L85 66.05v-6.14L54.32 29.4z"/><path style="fill:#fff" d="m55.82 20.26-5.31 5.35 1.16 1.15 2.65 2.64L85 59.91V45.99L55.82 20.26z"/></g></g></g></svg>