<svg xmlns="http://www.w3.org/2000/svg" width="90" height="90" viewBox="0 0 90 90">
  <defs>
    <style>
      .cls-1 {
        fill: #5c8cb1;
      }

      .cls-2 {
        fill: #3a729c;
      }

      .cls-3 {
        fill: #0b5987;
      }

      .cls-4 {
        fill: #fcd157;
      }
    </style>
  </defs>
  <g id="Layer_1" data-name="Layer 1">
    <g>
      <path class="cls-1" d="M75.47,31.32,52.11,10.66a13.14,13.14,0,0,0-14.22,0l-32,20.6a5.71,5.71,0,0,0-2.61,4.79v6L45,67.54S77.1,32.37,75.47,31.32Z"/>
      <path class="cls-2" d="M86.73,36.05a5.71,5.71,0,0,0-2.61-4.79l-32-20.6A13.17,13.17,0,0,0,45,8.57V33.48l41.73,8.57Z"/>
      <path class="cls-3" d="M84.41,37.62,50.09,15.53a9.39,9.39,0,0,0-10.18,0L5.59,37.62A5,5,0,0,0,6,46.33L45,66.87,84,46.33A5,5,0,0,0,84.41,37.62Z"/>
      <g>
        <path class="cls-2" d="M45,35.62c-15.81,0-28.68,4.79-28.68,10.69l0,15.07a6.55,6.55,0,0,0,3,5.5l20,12.88a10.37,10.37,0,0,0,11.25,0l20-12.88a6.55,6.55,0,0,0,3-5.5l0-15.07h0C73.68,40.41,60.81,35.62,45,35.62Z"/>
        <path class="cls-1" d="M18.84,49.44V61a3.46,3.46,0,0,0,1.53,3.23l.85.55L41,77.42c1.07.72,3.59.64,3.59-1.32L45,63.44C45,49.47,18.84,37.91,18.84,49.44Z"/>
      </g>
      <path class="cls-4" d="M82.18,60.07a2.83,2.83,0,0,0,.82-2,2.79,2.79,0,0,0-.88-2V30l-3.9-2.52v28.6a2.79,2.79,0,0,0-.88,2,2.83,2.83,0,0,0,.82,2L75.74,77c0,1,2,1.85,4.43,1.85S84.6,78,84.6,77Z"/>
    </g>
  </g>
</svg>