<svg xmlns="http://www.w3.org/2000/svg" width="90" height="90" viewBox="0 0 90 90">
  <defs>
    <style>
      .cls-1 {
        fill: #6c9d41;
      }

      .cls-2 {
        fill: #4e7838;
      }

      .cls-3 {
        fill: #d3ceb3;
      }

      .cls-4 {
        fill: #ece6d3;
      }

      .cls-5 {
        opacity: 0.15;
      }
    </style>
  </defs>
  <g id="Layer_1" data-name="Layer 1">
    <g>
      <path class="cls-1" d="M81.42,45.48h0c0-.12,0-.24,0-.37A36.43,36.43,0,1,0,45,81.54v-11A25.47,25.47,0,1,1,70.46,45.11c0,.12,0,.25,0,.37h-10L75.21,60.1,90,45.48Z"/>
      <path class="cls-2" d="M45,81.54v-11A25.45,25.45,0,0,1,23.7,59.06a7.5,7.5,0,0,0-.85.84v0a17.46,17.46,0,0,0-4.56,9.94A36.32,36.32,0,0,0,45,81.54Z"/>
      <path class="cls-2" d="M55.17,10.14a36.39,36.39,0,0,0-20.34,0,14.07,14.07,0,0,0-4,9.82,14.24,14.24,0,0,0,.5,3.66,25.45,25.45,0,0,1,27.3,0,14.24,14.24,0,0,0,.5-3.66A14.07,14.07,0,0,0,55.17,10.14Z"/>
      <path class="cls-3" d="M68.88,72.52a16.12,16.12,0,0,0-4.39-11.2,14.26,14.26,0,0,0-2.07-1.71c-11.21-7.07-11.33-14.5-11.57-17V39.63h6.7a10.57,10.57,0,0,0,1.22-4.75L50.85,30l.61-.37a12.26,12.26,0,0,0,4.87-7.43A13.4,13.4,0,0,0,56.45,20,11.64,11.64,0,0,0,45.37,8.44H45A11.65,11.65,0,0,0,33.43,20,9.63,9.63,0,0,0,33.67,22a11.48,11.48,0,0,0,4.87,7.67L39,30l-7.8,4.87a10.47,10.47,0,0,0,1.1,4.75h6.82L39,42.56c-.24,2.55-.36,10.11-11.57,17a10.49,10.49,0,0,0-2.2,1.83v0A16.2,16.2,0,0,0,21,72.52l.16.14,0,.11a6,6,0,0,0,.86.73,36.19,36.19,0,0,0,22.65,8H45a35.83,35.83,0,0,0,22.66-8A9.35,9.35,0,0,0,68.88,72.52Z"/>
      <path class="cls-4" d="M39,30.05l-7.74,4.83H36.8A12.91,12.91,0,0,1,39,30.05Z"/>
      <path class="cls-4" d="M45.37,8.44H45A11.65,11.65,0,0,0,33.43,20,9.63,9.63,0,0,0,33.67,22,11.11,11.11,0,0,0,34,23.38C34.92,13.58,41.31,8.81,45.37,8.44Z"/>
      <path class="cls-4" d="M33.68,58.61C38,55.47,38.59,46,38.59,46s0,0,0,0c-.8,3.54-3.17,8.76-11.11,13.68a10.49,10.49,0,0,0-2.2,1.83v0A16.2,16.2,0,0,0,21,72.52l.13.12h0C23.63,64.42,27.16,63.36,33.68,58.61Z"/>
      <g>
        <path class="cls-5" d="M49.93,52.11A22.39,22.39,0,0,0,58.73,57c-7.55-6.19-7.67-12.17-7.88-14.41V39.63h6.7a10.57,10.57,0,0,0,1.22-4.75l-7.5-4.61c-.29-.09-.56-.15-.81-.21l-.77-.1c.59.8,4.53,6.68-.13,9.7H39.15l-.08,1.85C41.52,44,46,48.41,49.93,52.11Z"/>
        <path class="cls-5" d="M51.19,24.56c-2.89,4.08-8.55,5.31-8.55,5.31h7l.07.09a6.27,6.27,0,0,1,.77.1l.62.09L50.85,30l.61-.37a12.26,12.26,0,0,0,4.87-7.43A13.4,13.4,0,0,0,56.45,20,11.66,11.66,0,0,0,47.31,8.7C51.93,11,55.12,19,51.19,24.56Z"/>
      </g>
    </g>
  </g>
</svg>